<?xml version="1.0" encoding="utf-8"?>
<!-- Generator: Adobe Illustrator 23.0.2, SVG Export Plug-In . SVG Version: 6.00 Build 0)  -->
<svg version="1.1" xmlns="http://www.w3.org/2000/svg" xmlns:xlink="http://www.w3.org/1999/xlink" x="0px" y="0px"
	 viewBox="0 0 2000 2000" style="enable-background:new 0 0 2000 2000;" xml:space="preserve">
<style type="text/css">
	.st0{display:none;}
	.st1{display:inline;}
	.st2{fill:none;stroke:#FFFFFF;stroke-width:3;stroke-linecap:round;stroke-miterlimit:10;}
	.st3{fill:none;stroke:#FFFFFF;stroke-width:3;stroke-linecap:round;stroke-miterlimit:10;stroke-dasharray:0,6.3876;}
	.st4{display:inline;opacity:0.92;}
	.st5{fill:none;stroke:#FFFFFF;stroke-width:2.66;stroke-linecap:round;stroke-miterlimit:10;}
	.st6{fill:none;stroke:#FFFFFF;stroke-width:2.66;stroke-linecap:round;stroke-miterlimit:10;stroke-dasharray:0,6.3876;}
	.st7{display:inline;opacity:0.86;}
	.st8{fill:none;stroke:#FFFFFF;stroke-width:2.33;stroke-linecap:round;stroke-miterlimit:10;}
	.st9{fill:none;stroke:#FFFFFF;stroke-width:2.33;stroke-linecap:round;stroke-miterlimit:10;stroke-dasharray:0,6.3876;}
	.st10{display:inline;opacity:0.78;}
	.st11{fill:none;stroke:#FFFFFF;stroke-width:2;stroke-linecap:round;stroke-miterlimit:10;}
	.st12{fill:none;stroke:#FFFFFF;stroke-width:2;stroke-linecap:round;stroke-miterlimit:10;stroke-dasharray:0,6.3876;}
	.st13{display:inline;opacity:0.7;}
	.st14{fill:none;stroke:#FFFFFF;stroke-width:1.66;stroke-linecap:round;stroke-miterlimit:10;}
	.st15{fill:none;stroke:#FFFFFF;stroke-width:1.66;stroke-linecap:round;stroke-miterlimit:10;stroke-dasharray:0,6.2467;}
	.st16{display:inline;opacity:0.62;}
	.st17{fill:none;stroke:#FFFFFF;stroke-width:1.33;stroke-linecap:round;stroke-miterlimit:10;}
	.st18{fill:none;stroke:#FFFFFF;stroke-width:1.33;stroke-linecap:round;stroke-miterlimit:10;stroke-dasharray:0,6.2467;}
	.st19{display:inline;opacity:0.56;}
	.st20{fill:none;stroke:#FFFFFF;stroke-linecap:round;stroke-miterlimit:10;}
	.st21{fill:none;stroke:#FFFFFF;stroke-linecap:round;stroke-miterlimit:10;stroke-dasharray:0,6.2467;}
	.st22{opacity:0.86;fill:#272361;}
	.st23{opacity:0.78;fill:#272361;}
	.st24{opacity:0.7;fill:#272361;}
	.st25{opacity:0.62;fill:#272361;}
	.st26{opacity:0.56;fill:#272361;}
	.st27{fill:#272361;}
	.st28{opacity:0.92;fill:#272361;}
</style>
<g id="Layer_1" class="st0">
	<g class="st1">
		<g>
			<g>
				<line class="st2" x1="39.7" y1="168.7" x2="39.7" y2="168.7"/>
				<line class="st3" x1="230.3" y1="260.8" x2="894.2" y2="576.3"/>
				<line class="st2" x1="986.2" y1="619" x2="986.2" y2="619"/>
			</g>
		</g>
		<g>
			<g>
				<line class="st2" x1="1936.1" y1="172" x2="1936.1" y2="172"/>
				<line class="st3" x1="1745.4" y1="260.8" x2="1081.5" y2="576.3"/>
				<line class="st2" x1="986.2" y1="622.3" x2="986.2" y2="622.3"/>
			</g>
		</g>
	</g>
	<g class="st4">
		<g>
			<g>
				<line class="st5" x1="39.7" y1="408.7" x2="39.7" y2="408.7"/>
				<line class="st6" x1="230.3" y1="500.7" x2="894.2" y2="812.9"/>
				<line class="st5" x1="986.2" y1="858.9" x2="986.2" y2="858.9"/>
			</g>
		</g>
		<g>
			<g>
				<line class="st5" x1="1936.1" y1="412" x2="1936.1" y2="412"/>
				<line class="st6" x1="1745.4" y1="500.7" x2="1081.5" y2="816.2"/>
				<line class="st5" x1="986.2" y1="858.9" x2="986.2" y2="858.9"/>
			</g>
		</g>
	</g>
	<g class="st7">
		<g>
			<g>
				<line class="st8" x1="39.7" y1="661.7" x2="39.7" y2="661.7"/>
				<line class="st9" x1="230.3" y1="753.8" x2="894.2" y2="1069.3"/>
				<line class="st8" x1="986.2" y1="1112" x2="986.2" y2="1112"/>
			</g>
		</g>
		<g>
			<g>
				<line class="st8" x1="1936.1" y1="665" x2="1936.1" y2="665"/>
				<line class="st9" x1="1745.4" y1="753.8" x2="1081.5" y2="1069.3"/>
				<line class="st8" x1="986.2" y1="1115.3" x2="986.2" y2="1115.3"/>
			</g>
		</g>
	</g>
	<g class="st10">
		<g>
			<g>
				<line class="st11" x1="39.7" y1="901.7" x2="39.7" y2="901.7"/>
				<line class="st12" x1="230.3" y1="993.7" x2="894.2" y2="1305.9"/>
				<line class="st11" x1="986.2" y1="1351.9" x2="986.2" y2="1351.9"/>
			</g>
		</g>
		<g>
			<g>
				<line class="st11" x1="1936.1" y1="905" x2="1936.1" y2="905"/>
				<line class="st12" x1="1745.4" y1="993.7" x2="1081.5" y2="1309.2"/>
				<line class="st11" x1="986.2" y1="1351.9" x2="986.2" y2="1351.9"/>
			</g>
		</g>
	</g>
	<g class="st13">
		<g>
			<line class="st14" x1="1936.1" y1="1121.9" x2="1936.1" y2="1121.9"/>
			<line class="st15" x1="1752" y1="1210.6" x2="1475.9" y2="1348.7"/>
			<line class="st14" x1="1383.9" y1="1394.7" x2="1383.9" y2="1394.7"/>
		</g>
	</g>
	<g class="st13">
		<g>
			<line class="st14" x1="39.7" y1="1121.9" x2="39.7" y2="1121.9"/>
			<line class="st15" x1="223.7" y1="1210.6" x2="499.8" y2="1348.7"/>
			<line class="st14" x1="591.8" y1="1394.7" x2="591.8" y2="1394.7"/>
		</g>
	</g>
	<g class="st16">
		<g>
			<line class="st17" x1="1936.1" y1="1319.1" x2="1936.1" y2="1319.1"/>
			<line class="st18" x1="1752" y1="1407.8" x2="1475.9" y2="1545.9"/>
			<line class="st17" x1="1383.9" y1="1591.9" x2="1383.9" y2="1591.9"/>
		</g>
	</g>
	<g class="st16">
		<g>
			<line class="st17" x1="39.7" y1="1319.1" x2="39.7" y2="1319.1"/>
			<line class="st18" x1="223.7" y1="1407.8" x2="499.8" y2="1545.9"/>
			<line class="st17" x1="591.8" y1="1591.9" x2="591.8" y2="1591.9"/>
		</g>
	</g>
	<g class="st19">
		<g>
			<line class="st20" x1="1936.1" y1="1516.3" x2="1936.1" y2="1516.3"/>
			<line class="st21" x1="1752" y1="1605" x2="1475.9" y2="1743.1"/>
			<line class="st20" x1="1383.9" y1="1789.1" x2="1383.9" y2="1789.1"/>
		</g>
	</g>
	<g class="st19">
		<g>
			<line class="st20" x1="39.7" y1="1516.3" x2="39.7" y2="1516.3"/>
			<line class="st21" x1="223.7" y1="1605" x2="499.8" y2="1743.1"/>
			<line class="st20" x1="591.8" y1="1789.1" x2="591.8" y2="1789.1"/>
		</g>
	</g>
</g>
<g id="Layer_2">
	<circle class="st22" cx="998.4" cy="1103.9" r="36.9"/>
	<circle class="st22" cx="819.4" cy="1014.7" r="36.9"/>
	<circle class="st22" cx="638.6" cy="931.3" r="36.9"/>
	<circle class="st22" cx="457.9" cy="843.5" r="36.9"/>
	<circle class="st22" cx="275.4" cy="758" r="36.9"/>
	<circle class="st22" cx="93" cy="669.9" r="36.9"/>
	<circle class="st22" cx="1179.1" cy="1015.1" r="36.9"/>
	<circle class="st22" cx="1359.9" cy="931.6" r="36.9"/>
	<circle class="st22" cx="1540.6" cy="843.8" r="36.9"/>
	<circle class="st22" cx="1723.1" cy="758.3" r="36.9"/>
	<circle class="st22" cx="1905.5" cy="670.2" r="36.9"/>
	<circle class="st23" cx="998.4" cy="1330" r="31.2"/>
	<circle class="st23" cx="821" cy="1243.7" r="31.2"/>
	<circle class="st23" cx="638.8" cy="1158.5" r="31.2"/>
	<circle class="st23" cx="457.6" cy="1072.7" r="31.2"/>
	<circle class="st23" cx="275.4" cy="987.4" r="31.2"/>
	<circle class="st23" cx="93" cy="899.5" r="31.2"/>
	<circle class="st23" cx="1180.2" cy="1246" r="31.2"/>
	<circle class="st23" cx="1359.9" cy="1159.3" r="31.2"/>
	<circle class="st23" cx="1542.9" cy="1072.7" r="31.2"/>
	<circle class="st23" cx="1723.1" cy="987.5" r="31.2"/>
	<circle class="st23" cx="1905.5" cy="902.6" r="31.2"/>
	<circle class="st24" cx="621" cy="1370.9" r="25.8"/>
	<circle class="st24" cx="444.2" cy="1282.7" r="25.8"/>
	<circle class="st24" cx="269.1" cy="1195.1" r="25.8"/>
	<circle class="st24" cx="92.7" cy="1109.6" r="25.8"/>
	<circle class="st24" cx="1379.1" cy="1370.1" r="25.8"/>
	<circle class="st25" cx="1378.6" cy="1559.2" r="21.1"/>
	<circle class="st25" cx="621" cy="1559.9" r="21.1"/>
	<circle class="st25" cx="444.6" cy="1470.9" r="21.1"/>
	<circle class="st25" cx="269.1" cy="1383.8" r="21.1"/>
	<circle class="st25" cx="93" cy="1298.9" r="21.1"/>
	<circle class="st25" cx="1555.5" cy="1470.9" r="21.1"/>
	<circle class="st25" cx="1731.4" cy="1383.8" r="21.1"/>
	<circle class="st25" cx="1907.5" cy="1298.9" r="21.1"/>
	<circle class="st26" cx="621" cy="1748.6" r="16.2"/>
	<circle class="st26" cx="444.6" cy="1660" r="16.2"/>
	<circle class="st26" cx="269.1" cy="1572.5" r="16.2"/>
	<circle class="st26" cx="93" cy="1487.5" r="16.2"/>
	<circle class="st26" cx="1378.6" cy="1748.6" r="16.2"/>
	<circle class="st26" cx="1555.5" cy="1660.1" r="16.2"/>
	<circle class="st26" cx="1731.4" cy="1572.5" r="16.2"/>
	<circle class="st26" cx="1907.5" cy="1487.5" r="16.2"/>
	<circle class="st24" cx="1556" cy="1281.9" r="25.8"/>
	<circle class="st24" cx="1731.1" cy="1194.3" r="25.8"/>
	<circle class="st24" cx="1907.4" cy="1108.8" r="25.8"/>
	<circle class="st27" cx="93" cy="198.2" r="47.2"/>
	<circle class="st27" cx="275.4" cy="286.3" r="47.2"/>
	<circle class="st27" cx="457" cy="373.1" r="47.2"/>
	<circle class="st27" cx="638.6" cy="459.2" r="47.2"/>
	<circle class="st27" cx="819.4" cy="546" r="47.2"/>
	<circle class="st27" cx="998.7" cy="629.1" r="47.2"/>
	<circle class="st27" cx="1908.1" cy="199.2" r="47.2"/>
	<circle class="st27" cx="1725.7" cy="287.2" r="47.2"/>
	<circle class="st27" cx="1544.1" cy="374" r="47.2"/>
	<circle class="st27" cx="1362.5" cy="460.2" r="47.2"/>
	<circle class="st27" cx="1181.7" cy="547" r="47.2"/>
	<circle class="st28" cx="92.9" cy="427.6" r="41"/>
	<circle class="st28" cx="275.4" cy="515.8" r="41"/>
	<circle class="st28" cx="457.9" cy="604.1" r="41"/>
	<circle class="st28" cx="638.6" cy="689" r="41"/>
	<circle class="st28" cx="819.4" cy="774.2" r="41"/>
	<circle class="st28" cx="998.7" cy="856.7" r="41"/>
	<circle class="st28" cx="1907.4" cy="430.8" r="41"/>
	<circle class="st28" cx="1724.9" cy="519" r="41"/>
	<circle class="st28" cx="1542.3" cy="607.2" r="41"/>
	<circle class="st28" cx="1361.6" cy="692.1" r="41"/>
	<circle class="st28" cx="1180.8" cy="777.3" r="41"/>
</g>
<g id="Layer_3">
</g>
<g id="Layer_4">
</g>
</svg>
